<?xml version="1.0" encoding="UTF-8"?>
<svg width="1200pt" height="1200pt" version="1.1" viewBox="0 0 1200 1200" xmlns="http://www.w3.org/2000/svg">
 <path d="m1007.1 556.59c11.297 0.23828 22.066 4.8242 30.066 12.809 7.9961 7.9805 12.609 18.738 12.871 30.035v407.62c-0.23828 11.312-4.8398 22.094-12.84 30.098-8.0039 8-18.785 12.602-30.098 12.84h-814.12c-11.312-0.23828-22.094-4.8398-30.098-12.84-8-8.0039-12.602-18.785-12.84-30.098v-814.12c0.23828-11.312 4.8398-22.094 12.84-30.098 8.0039-8 18.785-12.602 30.098-12.84h579.19c11.312 0.23828 22.094 4.8398 30.098 12.84 8 8.0039 12.602 18.785 12.84 30.098-0.26172 11.297-4.875 22.055-12.871 30.035-8 7.9844-18.77 12.57-30.066 12.809h-536.34v729.84h729.84v-365.06c-0.085938-11.379 4.5703-22.281 12.844-30.094 6.707-9 17.371-14.176 28.594-13.875zm-407.62 66.469 365.62-365.62c3.9609-4.0547 8.7148-7.2461 13.969-9.375 5.0859-2.0898 10.531-3.1719 16.031-3.1875 11.312 0.23828 22.094 4.8398 30.098 12.84 8 8.0039 12.602 18.785 12.84 30.098-0.019531 5.8633-1.1016 11.676-3.1875 17.156-1.8711 5.0703-5.1172 9.5156-9.375 12.844l-395.91 396.47c-3.3906 4.2344-7.8594 7.4727-12.938 9.375-5.4609 2.1523-11.285 3.2344-17.156 3.1875-5.5039 0.046875-10.961-1.0352-16.031-3.1875-5.2461-2.1406-10-5.3281-13.969-9.375l-170.53-172.78c-4.2969-3.2891-7.5508-7.75-9.375-12.844-2.2266-5.4414-3.3438-11.277-3.2812-17.156 0.37109-11.203 4.9844-21.848 12.902-29.781 7.918-7.9375 18.551-12.57 29.754-12.969 5.6875-0.22656 11.309 1.2773 16.125 4.3125 4.2188 3.1875 9.375 5.3438 13.875 8.625z" fill="#fff"/>
</svg>
