<?xml version="1.0" encoding="UTF-8"?>
<svg width="1200pt" height="1200pt" version="1.1" viewBox="0 0 1200 1200" xmlns="http://www.w3.org/2000/svg">
 <path d="m1119 360.12h-283.96v-65.305c0-22.738-18.441-41.18-41.18-41.18h-95.621v-160.8c0-10.359-8.3359-18.695-18.695-18.695h-148.17c-10.359 0-18.695 8.3359-18.695 18.695v160.67h-95.496c-22.738 0-41.18 18.441-41.18 41.18v65.305h-295.07c-34.105 0-61.895 27.789-61.895 61.895v642.06c0 34.105 27.789 61.895 61.895 61.895h1038.1c34.105 0 61.895-27.789 61.895-61.895v-641.94c0-34.23-27.789-61.895-61.895-61.895zm-568.93-248.59h110.65v141.98h-110.65zm-136.68 183.16c0-2.0195 1.6406-3.6641 3.6641-3.6641h376.8c2.0195 0 3.6641 1.7695 3.6641 3.6641v65.305h-384.13zm729.98 769.26c0 13.516-10.988 24.379-24.379 24.379h-1038.1c-13.516 0-24.379-10.988-24.379-24.379v-641.94c0-13.516 10.988-24.379 24.379-24.379h1037.9c13.516 0 24.379 10.988 24.379 24.379l0.003906 641.94zm-762.44-311.49c57.348 0 104.09-46.609 104.09-104.09 0-57.473-46.609-104.09-104.09-104.09-57.348 0-104.09 46.609-104.09 104.09 0 57.473 46.738 104.09 104.09 104.09zm0-170.53c36.633 0 66.57 29.809 66.57 66.57 0 36.758-29.809 66.57-66.57 66.57-36.633 0-66.57-29.809-66.57-66.57 0-36.762 29.938-66.57 66.57-66.57zm189.6-120.63h-379.2c-19.832 0-35.875 16.043-35.875 35.875v491.5c0 19.832 16.043 35.875 35.875 35.875h379.2c19.832 0 35.875-16.043 35.875-35.875v-491.5c0.12891-19.707-16.043-35.875-35.871-35.875zm-1.5195 37.516v354.95c-44.715-56.336-113.05-90.191-187.96-90.191-74.652 0-143.12 34.23-187.96 90.57v-355.33zm-376.04 488.34v-61.516l0.63281 0.25391c31.707-75.789 105.22-124.8 187.33-124.8 83.367 0 156.76 49.641 187.96 126.57v59.496zm851.49-453.47c0 10.359-8.3359 18.695-18.695 18.695h-327.16c-10.359 0-18.695-8.3359-18.695-18.695s8.3359-18.695 18.695-18.695h327.03c10.359 0 18.82 8.3398 18.82 18.695zm0 139.58c0 10.359-8.3359 18.695-18.695 18.695h-327.16c-10.359 0-18.695-8.4648-18.695-18.695s8.3359-18.695 18.695-18.695h327.03c10.359-0.125 18.82 8.3398 18.82 18.695zm0 139.45c0 10.359-8.3359 18.695-18.695 18.695h-327.16c-10.359 0-18.695-8.4648-18.695-18.695 0-10.23 8.3359-18.695 18.695-18.695h327.03c10.359 0 18.82 8.3398 18.82 18.695zm0 139.58c0 10.359-8.3359 18.695-18.695 18.695h-327.16c-10.359 0-18.695-8.4648-18.695-18.695s8.3359-18.695 18.695-18.695h327.03c10.359-0.125 18.82 8.3398 18.82 18.695z" fill="#fff"/>
</svg>
