<?xml version="1.0" encoding="UTF-8"?>
<svg width="100pt" height="100pt" version="1.1" viewBox="0 0 100 100" xmlns="http://www.w3.org/2000/svg">
 <path d="m30.727 51.465c0.011719 0.007812 0.019532 0.011718 0.03125 0.015625l2.2891 0.76562h-0.003906c1.0312 0.34375 2.1602 0.24219 3.1133-0.28125 0.95312-0.52344 1.6484-1.4219 1.9102-2.4766l1.7773-7.1367c0.60547-2.0703-0.58594-4.2383-2.6562-4.8438-2.0703-0.60547-4.2383 0.58594-4.8438 2.6562l-0.53516 1.6055-4.3828-1.457-2.4414-17.098c-0.074219-0.50781-0.39062-0.94531-0.84766-1.1758l-2.5625-1.2812c2.0469-1.0703 3.6211-2.8672 4.418-5.0352 0.20703-0.57031 0.35937-1.1602 0.45312-1.7617l3.0039 0.46875c0.41406 0.074218 0.83984-0.023438 1.1836-0.26953 0.33984-0.24219 0.57031-0.61328 0.63281-1.0312 0.066406-0.41406-0.042969-0.83594-0.29297-1.1758-0.25-0.33594-0.62891-0.55469-1.043-0.60938l-3.5312-0.54688h-0.003907c-0.47656-2.6602-2.0742-4.9844-4.3867-6.3789-2.3164-1.3906-5.1172-1.7227-7.6875-0.90234-2.5742 0.82422-4.668 2.7109-5.7461 5.1875-1.082 2.4766-1.0391 5.2969 0.11328 7.7422 0.86328 1.8477 2.3125 3.3633 4.125 4.3047l-2.5781 1.2891c-0.41797 0.20703-0.71875 0.58984-0.82422 1.043l-1.8164 7.8047-3.2812 14.062c-0.11328 0.46484-0.003906 0.95312 0.28906 1.3281 0.29688 0.375 0.74609 0.59766 1.2227 0.59766h0.47656l1.5117 43.781v4.6562c0 0.41406 0.16406 0.8125 0.45703 1.1055s0.69141 0.45703 1.1055 0.45703h9.375c0.41406 0 0.8125-0.16406 1.1055-0.45703s0.45703-0.69141 0.45703-1.1055h9.375c0.41406 0 0.8125-0.16406 1.1055-0.45703s0.45703-0.69141 0.45703-1.1055v-1.5625c0-2.2148-1.5547-4.1289-3.7227-4.5859l2.1406-13.926c0.023437-0.13672 0.023437-0.27344 0.011719-0.41016l-2.5781-23.188 3.5938 1.3828c0.007813 0.003906 0.019532 0 0.03125 0.003906zm5.3359-10.84c0.23828 0 0.46484 0.11328 0.61328 0.30078 0.14844 0.1875 0.19922 0.43359 0.14453 0.66797l-1.7852 7.1367c-0.054687 0.21094-0.19141 0.38672-0.38281 0.49219-0.1875 0.10547-0.41406 0.125-0.62109 0.058594l-0.91406-0.3125 1.1953-4.7891 1.0117-3.0312c0.10938-0.3125 0.40625-0.52344 0.73828-0.52344zm-13.004-25.977c-0.71875 1.9688-2.3789 3.4414-4.4219 3.9297-2.0391 0.48438-4.1836-0.085937-5.7148-1.5156l4.7812-4.4531 5.6562 0.875h-0.003906c-0.0625 0.39453-0.16016 0.78516-0.29688 1.1641zm-12.051-3.0742 2.7617 0.42578-2.5195 2.3516c-0.29297-0.89844-0.375-1.8477-0.24219-2.7773zm3.5508-4.7461c1.5664-0.73047 3.3672-0.77734 4.9688-0.125 1.6016 0.65234 2.8594 1.9453 3.4688 3.5625l-10.672-1.6523c0.59766-0.76172 1.3594-1.3711 2.2344-1.7852zm2.6289 15.23 4.8203 2.4102 2.1055 14.734-3.8008-1.2656v-6.6875c0-0.86328-0.69922-1.5625-1.5625-1.5625s-1.5625 0.69922-1.5625 1.5625v7.8125c0 0.67188 0.42969 1.2695 1.0703 1.4805l12.688 4.2305-0.78125 3.1328-17.832-6.8594-1.6289-9.7461 1.5859-6.793zm-9.3906 21.691 1.0625-4.5391 0.53906 3.2344c0.089843 0.54688 0.46094 1.0039 0.97656 1.2031l0.27344 0.10156zm3.1406 50v-1.5625h4.6875c0.41406 0 0.8125 0.16406 1.1055 0.45703s0.45703 0.69141 0.45703 1.1055zm5.1562-4.6406 1.9102-24.711 2.2891 9.1562-1.5352 15.352c0 0.027344 0.007813 0.050781 0 0.078125-0.007812 0.03125-0.007812 0.050781-0.007812 0.078125v1.2188c-0.73828-0.66406-1.668-1.0742-2.6562-1.1719zm12.031 3.0781h-6.25v-1.5625h4.6875c0.41406 0 0.8125 0.16406 1.1055 0.45703s0.45703 0.69141 0.45703 1.1055zm-1.5742-18.781-2.1758 14.094h-2.3438l1.4062-13.906c0.019531-0.17969 0.003906-0.35938-0.039062-0.53516l-4.6875-18.75c-0.17578-0.75391-0.88281-1.2578-1.6562-1.1836-0.76172 0.0625-1.3672 0.67188-1.4258 1.4375l-2.6602 34.5h-2.0859l-1.4531-42.188h9.3438l5.0469 1.9414z" fill="#013364"/>
 <path d="m96.051 86.121c-0.50781-0.26953-1.125-0.24219-1.6055 0.078125l-3.6211 2.4141-1.0938-1.0938c-0.33594-0.33594-0.80469-0.5-1.2773-0.44922-0.46875 0.054688-0.89062 0.31641-1.1484 0.71484l-1.7109 2.6875c-1.1367-8.4727-5.2266-16.273-11.543-22.031l-3.8516-3.5-0.015625-0.011718h0.003906c-0.69141-0.62891-1.1523-1.4727-1.3125-2.3906 0.19141-0.51172 0.28906-1.0508 0.29297-1.5938l0.011719-4.0039v0.003906c0.58594-2.832-0.39453-5.7617-2.5625-7.6719-2.0234-1.8633-4.6484-2.9375-7.3984-3.0234-1.2266 0.078125-2.4258 0.37891-3.543 0.89453-0.30469 0.12891-0.65625 0.10547-0.9375-0.070312l-2.3672-1.5352c-0.87891-0.57031-1.9922-0.63281-2.9336-0.16406l-0.91406 0.45703c-1.4492 0.70703-2.0547 2.4492-1.3594 3.9062 0.15625 0.33203 0.34375 0.6875 0.54688 1.0508 0.45312 4.0078 2.4141 7.6914 5.4844 10.305-0.6875-0.027344-1.3047 0.41016-1.5156 1.0664-0.21094 0.65234 0.042968 1.3672 0.61719 1.7461-2.1914 6.3047-1.6172 13.242 1.5898 19.094 0.41016 0.71094 0.73828 1.4688 0.97656 2.2539l0.33594 1.1211h0.003906c0.625 2.0938 0.48828 4.3477-0.39062 6.3477-0.40234 0.91406-0.31641 1.9688 0.22656 2.8086 0.54297 0.83594 1.4766 1.3398 2.4727 1.3438h3.707c0.56641 0 1.0898-0.30859 1.3633-0.80469 0.26562 0.49219 0.78125 0.80078 1.3398 0.80469h31.391c0.41406 0 0.8125-0.16406 1.1055-0.45703s0.45703-0.69141 0.45703-1.1055v-7.8125c0-0.57812-0.31641-1.1055-0.82422-1.3789zm-45.312-37.914 2.2852 1.4844v0.003906c1.1406 0.73047 2.5703 0.85938 3.8242 0.33984 0.74609-0.35938 1.5469-0.58203 2.3711-0.66016 1.9805 0.082031 3.8672 0.87109 5.3125 2.2266 1.4219 1.2461 2.0195 3.1836 1.5508 5.0117-0.011719 0.074219-0.015625 0.14844-0.015625 0.22266l-0.011718 4.1172c0 0.65625-0.41797 1.2422-1.043 1.4492l-0.26562 0.085937v0.003907c-0.56641 0.19141-1.1953 0.035156-1.6055-0.39844-0.41016-0.4375-0.53125-1.0703-0.30859-1.625l2.0312-5.0938c0.30469-0.79688-0.085937-1.6914-0.87891-2.0078-0.79297-0.31641-1.6914 0.0625-2.0234 0.85156l-2.0312 5.0938v-0.003906c-0.37891 0.96094-0.42969 2.0195-0.14063 3.0117-1.1016-0.015624-2.1992-0.13672-3.2812-0.35547l0.17188-0.33203c0.32031-0.625 0.19141-1.3828-0.32031-1.8594l-1.0273-0.95703-0.003906-0.003906c-1.1797-1.0859-2.2031-2.3398-3.0312-3.7148l1.5 0.58203c0.80469 0.3125 1.7109-0.085938 2.0234-0.89063 0.30859-0.80469-0.089843-1.7109-0.89453-2.0234l-1.9883-0.76562c-1.2812-0.83594-2.2852-2.0352-2.8828-3.4453zm12.867 43.629c-0.17188 0.21484-0.32812 0.4375-0.46875 0.67187l0.625-4.9844c0.69531 1.2148 1.6484 2.2578 2.793 3.0625-1.8047 0.35156-2.5312 0.75391-2.9414 1.25zm3.0742 1.9141c1.5273-0.30078 3.0742-0.51172 4.625-0.625l0.17969-0.015625h0.058594l3.2539-0.42969h0.003906c0.85547-0.11328 1.457-0.89844 1.3438-1.7539s-0.89844-1.457-1.7539-1.3438l-2.8125 0.37109c-2.2695-1.0703-5.1562-3.0586-5.1992-4.375-0.027344-0.82812 0.16406-1.168 0.24219-1.2305v-0.003906c0.13672-0.050781 0.28906-0.050781 0.42578 0 0.83594 0.21094 1.6875-0.29688 1.8945-1.1328 0.21094-0.83594-0.29688-1.6875-1.1328-1.8984-1.0859-0.32031-2.2578-0.097656-3.1484 0.59375-0.41016 0.33984-0.73828 0.76562-0.95703 1.25l-0.12109-3.2578c-0.03125-0.86328-0.75781-1.5352-1.6211-1.5039-0.86328 0.03125-1.5352 0.75781-1.5039 1.6211l0.25781 6.8438-0.87109 6.8906h-2.082c1.0938-2.625 1.2422-5.5469 0.42578-8.2734l-0.33594-1.1211c-0.30859-1.0078-0.72656-1.9766-1.25-2.8906-2.7734-5.0898-3.2539-11.113-1.3242-16.574 1.5312 0.35938 3.0977 0.54688 4.6719 0.55859 0.79297-0.003907 1.5898-0.066407 2.375-0.1875 0.60156 0.28125 1.2578 0.42969 1.918 0.43359 0.50391 0 1.0039-0.082031 1.4805-0.24219l0.26562-0.089844v0.003907c0.17188-0.0625 0.33594-0.13281 0.5-0.21094 0.39844 0.78906 0.94141 1.5 1.6016 2.0938l0.042968-0.046875c0.54688 0.58594 1.6406 1.5781 3.8203 3.5586 6.5078 5.9297 10.398 14.195 10.82 22.988zm27.07 0h-6.5273l1.6836-2.6367 0.625 0.625c0.52734 0.52734 1.3516 0.60938 1.9727 0.19531l2.2461-1.5156z" fill="#013364"/>
</svg>
