<?xml version="1.0" encoding="UTF-8"?>
<svg width="100pt" height="100pt" version="1.1" viewBox="0 0 100 100" xmlns="http://www.w3.org/2000/svg">
 <path d="m91.133 24.957-2.6875-0.5625c-0.29297-0.0625-0.54687-0.20312-0.74219-0.41016l-5.5664-5.9727c-1.1953-1.2734-2.8125-2.0742-4.5547-2.25l-5.1758-0.54688c-1.793-0.18359-3.6055 0.070312-5.2227 0.72656-1.6602 0.66016-4.1914 1.9062-6.8125 4.0664-0.80469 0.65234-1.3008 1.5859-1.3906 2.625-0.089844 1.0156 0.21875 2.0117 0.85938 2.8008l1.1875 1.4766-0.80078 7.7891c-0.16406 1.5859-0.92187 3.0078-2.0547 4.0391l-39.734-35.223c-0.64844-0.57031-1.6328-0.51172-2.207 0.13281-0.57031 0.64453-0.51172 1.6328 0.13281 2.207l38.836 34.414-25.527 6.4648c-2.1094 0.53516-4.0547 1.4258-5.7852 2.5938-3.3672-1.4492-10.797-9.3281-10.105-20.168 0.035156-0.56641-0.23828-1.1094-0.71875-1.4141-0.48047-0.30469-1.0859-0.32812-1.5859-0.058594-0.16016 0.085938-3.9219 2.1602-5.5508 6.0781-1.3906 3.3555-1.3945 7.0391-0.007812 10.367 1.8594 4.4648 6.0586 8.1797 12.43 11.086-1.8086 3.043-2.7695 6.6094-2.5859 10.336l0.32422 6.4883-4.6562 3.9258c-0.63672 0.53906-1.0469 1.2852-1.1523 2.1016-0.21875 1.6758-1.0234 7.3438-2.3008 9.8984-0.20312 0.40625-0.21875 0.87891-0.046874 1.3008l2.7656 6.6445c0.24219 0.58203 0.8125 0.96094 1.4414 0.96094h9.832c0.8125 0 1.4922-0.625 1.5586-1.4336 0.027344-0.32031 0.20312-3.207-1.7227-5.3008-0.83984-0.91406-1.9219-1.5078-3.2227-1.7852l0.38281-2.6875 5.1562-3.5625c1.75-0.10938 7.5898-0.80078 11.766-5.1289 0.69141-0.71875 1.2891-1.5 1.8164-2.3398h21.234l9.4609 21.305c0.25 0.5625 0.8125 0.92969 1.4297 0.92969h10.906c0.86328 0 1.5625-0.69922 1.5625-1.5625 0-4.9688-3.2812-6.9414-5.793-7.4766l-2.3906-15.301c0.85156-0.75781 1.7812-1.8555 2.5547-2.8477 2.8203-3.6016 7.2188-11.023 4.9414-20.254-0.5-2.0938-1.3477-4.2109-2.5117-6.2852-0.44922-0.80859-0.14844-1.5586 0.070313-1.9336 0.46094-0.78516 1.332-1.293 2.2188-1.293h3.5938c2.3477 0 4.6016-1.1172 6.0234-2.9883l3.0977-4.0508c1.0469-1.375 1.3086-3.1641 0.70313-4.7812-0.60547-1.6211-1.9805-2.7969-3.6719-3.1484zm-12.336 26.406c0.25 1.3984 0.33984 2.7422 0.28516 4.0312h-17.559v-4.0312zm-20.398 4.0273h-4.0312v-4.0312h4.0312zm0 16.125h-4.0312v-13h4.0312zm-4.0312-23.277v-4.5312l1.875-0.47656c0.76562-0.19531 1.4805-0.50391 2.1562-0.87109v5.8789zm-45.562-5.3047c-1.4375-3.4453-0.60938-6.4727 0.007812-7.9688 0.45312-1.0898 1.1562-2.0039 1.8555-2.7188 0.625 9.1289 6.1562 16.441 10.617 19.219-0.37891 0.37109-0.73828 0.75781-1.082 1.1602-5.8789-2.582-9.8281-5.9141-11.402-9.6953zm29.789 19.824c-0.86328 0.023438-1.543 0.74219-1.5156 1.6055 0.125 4.4219-1.0234 7.9297-3.4219 10.426-3.9297 4.0898-10.008 4.2109-10.062 4.2109-0.3125 0-0.61719 0.097656-0.875 0.27734l-6.0898 4.207c-0.35938 0.25-0.59766 0.63281-0.66016 1.0664l-0.70703 4.9727c-0.0625 0.44922 0.070312 0.90234 0.36719 1.2422 0.29688 0.34375 0.72656 0.53906 1.1797 0.53906 1.2188 0 2.1016 0.30469 2.6875 0.9375 0.41406 0.44141 0.64062 0.99609 0.76953 1.5039h-7.082l-2.1016-5.0547c1.2695-3.043 2.0273-8.0938 2.3672-10.336l5.25-4.4258c0.375-0.3125 0.57812-0.78516 0.55469-1.2734l-0.36328-7.2617c-0.25781-5.1875 2.1484-10.012 6.1094-13.004 0.046875-0.027344 0.085938-0.0625 0.12891-0.09375 1.5625-1.1562 3.3477-2.0352 5.3164-2.5352l20.805-5.2695v27.02h-12.039c0.73828-2.1406 1.0742-4.5547 0.99609-7.2383-0.023437-0.86328-0.80078-1.5664-1.6055-1.5156zm32.945 7.8828c-0.10547 0.074219-0.20312 0.16406-0.28906 0.26562-0.29688 0.34766-0.42578 0.80469-0.35547 1.2578l2.7031 17.312c0.11719 0.75 0.75 1.3047 1.5078 1.3203 0.35938 0.007813 3.1172 0.16406 3.875 2.9531h-8.1367l-9.3203-20.988v-14.246h17.176c-1.5312 7.1406-6.7734 11.797-7.1602 12.125zm20.078-39.652-3.0977 4.0508c-0.84766 1.1172-2.1367 1.7578-3.5391 1.7578h-3.5938c-2.0039 0-3.8828 1.0859-4.9141 2.832-0.9375 1.5938-0.97656 3.4766-0.10547 5.043 0.66406 1.1836 1.1953 2.375 1.6172 3.5664h-16.469v-8.6016c0.98047-1.332 1.6406-2.9102 1.8164-4.625l0.47656-4.6484 2.7422 3.4102c1.1172 1.3906 2.9297 1.9023 4.6133 1.3125 1.6875-0.59375 2.7773-2.1328 2.7773-3.9141v-9.625c0-0.86328-0.69922-1.5625-1.5625-1.5625-0.86328 0-1.5625 0.69922-1.5625 1.5625v9.625c0 0.65625-0.48438 0.89453-0.69141 0.96875-0.20703 0.070313-0.73047 0.1875-1.1406-0.32422l-6.7227-8.3477c-0.13281-0.16406-0.19531-0.36328-0.17578-0.57031 0.011718-0.13281 0.0625-0.32031 0.25391-0.47656 2.3203-1.9141 4.5391-3.0039 6-3.5859 1.1719-0.47656 2.4336-0.65234 3.7305-0.51953l5.1758 0.54688c0.99609 0.10156 1.918 0.55469 2.5938 1.2773l5.5625 5.9688c0.63281 0.67969 1.4609 1.1445 2.3867 1.3398l2.6914 0.5625c0.64844 0.13281 1.1523 0.56641 1.3828 1.1836 0.23047 0.61719 0.13281 1.2695-0.26172 1.7891z" fill="#013364"/>
</svg>
