<?xml version="1.0" encoding="UTF-8"?>
<svg id="Layer_1" xmlns="http://www.w3.org/2000/svg" version="1.1" viewBox="0 0 89.4 89.4">
  <!-- Generator: Adobe Illustrator 29.1.0, SVG Export Plug-In . SVG Version: 2.1.0 Build 142)  -->
  <defs>
    <style>
      .st0 {
        fill: #013364;
      }
    </style>
  </defs>
  <path class="st0" d="M44.7,82.4c-.4,0-.8-.1-1.2-.3C38.7,79.1-4,51.7,1.8,22.3c1.3-5.5,5-10.2,10.2-12.6,6.5-3.4,14.2-3.6,20.9-.6h0c0,0,0,0,0,0,4.7,2,8.7,5.1,11.8,9.1,3.1-4,7.2-7.2,11.9-9.2,6.7-3,14.4-2.7,20.9.7,5.2,2.4,8.9,7.1,10.2,12.6,5.8,29.4-36.9,56.8-41.8,59.8-.4.2-.8.3-1.2.3h0ZM23.2,10.1c-3.4,0-6.8.8-9.8,2.4-4.3,2-7.5,5.8-8.6,10.4C-.4,49.5,38.2,75.1,44.7,79.1c6.5-4.1,45.1-29.6,39.9-56.2-1.1-4.6-4.3-8.4-8.6-10.4-5.7-2.9-12.3-3.1-18.2-.6l-.8.4h0c-4.2,2-7.8,5-10.4,8.8-.4.6-1.1,1-1.9,1s-1.5-.4-1.9-1c-2.8-4-6.7-7.1-11.2-9.1-2.7-1.2-5.5-1.8-8.5-1.8h0Z"/>
  <path class="st0" d="M50.3,40.5c-.2,0-.5,0-.7,0-1.6-.4-3-1.5-3.6-3.1-.7-1.6-.8-3.4-.5-5.1.7-4.1,3.6-6.8,6.6-6.3,1.6.4,3,1.5,3.6,3.1,1.3,3.3.6,7.1-1.7,9.8-.9,1.1-2.3,1.7-3.7,1.7h0ZM51.4,29c-1.1,0-2.4,1.5-2.8,3.8-.2,1.1-.1,2.3.3,3.3.1.3.6,1.1,1.2,1.2h0c.6,0,1.2-.2,1.6-.7.8-.8,1.2-1.9,1.4-3,.2-1.1.1-2.3-.3-3.3-.1-.3-.6-1.1-1.2-1.2h0c0,0-.1,0-.2,0h0Z"/>
  <path class="st0" d="M57.6,48.3c-.4,0-.8,0-1.2-.2-2.4-.9-3.4-4.1-2.2-7.3.5-1.4,1.3-2.6,2.5-3.4,1.1-.9,2.6-1.2,3.9-.7,1.3.5,2.3,1.7,2.5,3.1.6,2.9-.5,5.8-2.8,7.6-.8.6-1.7.9-2.7.9h0ZM59.2,39.6c-.3,0-.6.1-.8.3-.6.5-1.1,1.2-1.4,2-.6,1.7-.2,3.1.4,3.3.4,0,.7,0,1-.3.6-.5,1.1-1.2,1.4-2,.3-.8.4-1.6.2-2.4,0-.4-.3-.7-.6-.9,0,0-.1,0-.2,0h0Z"/>
  <path class="st0" d="M31.8,48.3c-1,0-1.9-.3-2.7-.9-1.1-.9-2-2.1-2.5-3.4-.5-1.3-.6-2.8-.3-4.2.2-1.4,1.2-2.6,2.5-3.1,1.3-.5,2.8-.2,3.9.7,1.1.9,2,2.1,2.5,3.4,1.2,3.2.2,6.4-2.2,7.3-.4.1-.8.2-1.2.2h0ZM30.2,39.6c0,0-.1,0-.2,0-.3.2-.5.5-.6.9-.2.8,0,1.6.2,2.4.3.8.7,1.5,1.4,2,.3.2.6.4,1,.3.5-.2,1-1.6.4-3.3h0c-.3-.8-.7-1.5-1.4-2-.2-.2-.5-.3-.8-.3Z"/>
  <path class="st0" d="M39.4,40.5c-2.7,0-5.2-2.6-5.9-6.4-.3-1.7-.2-3.5.5-5.1.6-1.6,1.9-2.7,3.6-3.1,3-.5,5.9,2.2,6.6,6.3.3,1.7.2,3.5-.5,5.1-.6,1.6-1.9,2.7-3.6,3.1-.2,0-.5,0-.7,0h0ZM38.3,29c0,0-.1,0-.2,0-.6.2-1.1.6-1.2,1.2-.4,1.1-.5,2.2-.3,3.3.4,2.4,1.9,3.9,3,3.8.7-.1,1.1-.9,1.2-1.2.4-1.1.5-2.2.3-3.3-.4-2.2-1.8-3.8-2.8-3.8h0Z"/>
  <path class="st0" d="M36,65.1c-2.5.1-4.9-.9-6.5-2.7-2.1-2.7-1.9-6.5.6-8.9.7-.6,1.5-1.2,2.3-1.6,1-.5,1.8-1.2,2.5-2,.4-.8.8-1.5,1-2.4.3-1.1.8-2.2,1.5-3.2,1.8-2.3,4.6-3.5,7.4-3.3,4.5,0,6.6,1.8,7.6,3.4.6,1,1,2,1.3,3.1.2.9.6,1.8,1.1,2.5.7.9,1.6,1.6,2.6,2.1.8.4,1.5.9,2.2,1.4,2.4,2.4,2.7,6.2.6,8.9-2.3,2.9-6.4,3.1-9.3,2.4h0c-1.2-.3-2.3-.8-3.3-1.4-.8-.6-1.7-.9-2.7-1.1-1,.2-1.9.5-2.7,1.1-1,.6-2.1,1.1-3.3,1.4-.9.2-1.8.3-2.7.3h0ZM44.8,44c-1.8-.1-3.6.6-4.8,1.9-.5.8-.8,1.6-1.1,2.5-.3,1.1-.8,2.1-1.3,3-.9,1.3-2.1,2.3-3.5,3-.6.4-1.3.8-1.8,1.3-1.2,1.3-1.3,3.3-.2,4.7,1.3,1.6,4,1.8,6.1,1.3h0c.9-.3,1.7-.6,2.5-1.1,1.3-.8,2.7-1.3,4.2-1.5,1.5.1,3,.6,4.2,1.5.8.5,1.6.9,2.5,1.1,2.1.5,4.8.3,6.1-1.3h0c1.1-1.4,1-3.4-.2-4.7-.5-.4-1-.7-1.6-1-1.5-.7-2.7-1.7-3.7-3.1-.7-1-1.2-2.2-1.5-3.4-.2-.8-.5-1.6-.9-2.4-.8-1.3-2.5-1.9-4.9-1.9h0Z"/>
</svg>